<svg preserveAspectRatio="none" overflow="visible" style="display: block;" width="22" height="20" viewBox="0 0 22 20" fill="none" xmlns="http://www.w3.org/2000/svg">
<g id="mdi:files">
<path id="Vector" d="M13.75 5.83333H18.7917L13.75 1.25V5.83333ZM7.33333 0H14.6667L20.1667 5V15C20.1667 15.442 19.9735 15.8659 19.6297 16.1785C19.2859 16.4911 18.8196 16.6667 18.3333 16.6667H7.33333C6.8471 16.6667 6.38079 16.4911 6.03697 16.1785C5.69315 15.8659 5.5 15.442 5.5 15V1.66667C5.5 1.22464 5.69315 0.800716 6.03697 0.488155C6.38079 0.175595 6.8471 0 7.33333 0ZM3.66667 3.33333V18.3333H18.3333V20H3.66667C3.18044 20 2.71412 19.8244 2.3703 19.5118C2.02649 19.1993 1.83333 18.7754 1.83333 18.3333V3.33333H3.66667Z" fill="#014C8A"/>
</g>
</svg>
